<svg width="65" height="14" viewBox="0 0 65 14" fill="none" xmlns="http://www.w3.org/2000/svg">
<path d="M56.2168 9.71206e-08C56.7894 9.71206e-08 57.3444 -0.00041852 57.917 0.053711C61.2636 0.324514 62.8213 1.66106 63.6982 2.9248C64.1099 3.53874 64.8428 4.85666 64.8428 6.78809C64.8428 7.92542 64.6107 10.489 62.0518 12.2402C61.3896 12.6916 60.7448 12.9982 59.9932 13.2148C59.2594 13.4315 58.1499 13.6484 56.3604 13.6484C53.6759 13.6484 52.0474 13.0523 51.0273 12.4385C50.6873 12.2399 50.0609 11.8246 49.4346 11.0664C48.0924 9.42358 48.0381 7.76258 48.0381 6.9502C48.0382 3.73694 49.7384 2.12984 50.7764 1.42578C51.8501 0.685636 53.3894 0.0361511 56.2168 9.71206e-08ZM9.30664 0.469727C11.0066 0.469749 12.6353 0.596025 13.6553 2.2207C13.8879 2.59989 14.2998 3.35843 14.2998 4.51367C14.2998 5.10969 14.1736 6.80594 12.5811 7.69043C12.2769 7.87094 12.0444 7.96159 11.4004 8.12402L14.5498 13.2148H9.55664L6.94434 8.5752H4.5459V13.2148H0V0.469727H9.30664ZM29.7178 3.32227H20.9131V5.41602H29.0557V8.28613H20.9131V10.3262H29.8789V13.2148H16.3857V0.469727H29.7178V3.32227ZM39.2119 0.469727C39.7129 0.469734 40.2139 0.487342 40.7148 0.523438C43.6498 0.776185 44.9388 2.02179 45.6904 3.12305C46.764 4.67535 46.7998 6.30006 46.7998 6.98633C46.7998 7.56404 46.7456 9.64073 45.457 11.1572C45.2422 11.428 44.7952 11.8794 44.0439 12.3125C43.7755 12.4569 43.2022 12.7643 42.4326 12.9629C41.7886 13.1253 41.3231 13.2148 40.0527 13.2148H32.0352V0.469727H39.2119ZM56.4854 2.83398C55.895 2.834 55.412 2.88854 54.8574 3.12305C53.372 3.75492 52.6914 5.29017 52.6914 6.84277C52.6914 7.07786 52.71 7.72709 52.9424 8.39453C53.694 10.6693 55.7344 10.832 56.5039 10.832C56.7193 10.832 57.5245 10.8321 58.2041 10.5254C59.6177 9.89341 60.1904 8.26839 60.1904 6.82422C60.1904 5.19941 59.5102 4.17011 59.0449 3.75488C58.866 3.57437 58.4364 3.24983 57.8281 3.0332C57.506 2.92488 57.1654 2.83398 56.4854 2.83398ZM36.4551 10.3262H38.7646C39.0151 10.3262 39.2835 10.3085 39.5518 10.2725C41.1087 10.0739 41.6635 9.36964 41.9678 8.71973C42.3614 7.90738 42.3789 7.22093 42.3789 6.87793C42.3789 6.48009 42.325 5.0547 41.2158 4.18848C40.2674 3.46647 38.9254 3.50195 38.6211 3.50195H36.4551V10.3262ZM4.5459 5.70508H7.94629C8.8051 5.70506 9.25274 5.59683 9.53906 5.25391C9.77172 4.96505 9.78906 4.67568 9.78906 4.53125C9.78904 4.42282 9.77142 4.13436 9.59277 3.88184C9.28853 3.4305 8.78692 3.3584 8.30371 3.3584H4.5459V5.70508Z" fill="white"/>
</svg>
